<svg id="trend-chart" width="660" height="400" title="Stack Overflow Trends Chart" version="1.1" 
    xmlns="http://www.w3.org/2000/svg">
    <rect width="100%" height="100%" fill="white"/>
    <g class="chart-area" transform="translate(100, 20)">
        <g transform="translate(0,300)" fill="none" font-size="10" font-family="sans-serif" text-anchor="middle">
            <path class="domain" stroke="#000" d="M0.5,6V0.5H410.5V6"></path>
            <g class="tick" opacity="1" transform="translate(15.047111839410078,0)">
                <line stroke="#000" y2="6" x1="0.5" x2="0.5"></line>
                <text fill="#000" y="9" x="0.5" dy="0.71em" style="font-size: 12px;">2009</text>
            </g>
            <g class="tick" opacity="1" transform="translate(50.934043424825894,0)">
                <line stroke="#000" y2="6" x1="0.5" x2="0.5"></line>
                <text fill="#000" y="9" x="0.5" dy="0.71em" style="font-size: 12px;">2010</text>
            </g>
            <g class="tick" opacity="1" transform="translate(86.82097501024171,0)">
                <line stroke="#000" y2="6" x1="0.5" x2="0.5"></line>
                <text fill="#000" y="9" x="0.5" dy="0.71em" style="font-size: 12px;">2011</text>
            </g>
            <g class="tick" opacity="1" transform="translate(122.70790659565752,0)">
                <line stroke="#000" y2="6" x1="0.5" x2="0.5"></line>
                <text fill="#000" y="9" x="0.5" dy="0.71em" style="font-size: 12px;">2012</text>
            </g>
            <g class="tick" opacity="1" transform="translate(158.6931585415813,0)">
                <line stroke="#000" y2="6" x1="0.5" x2="0.5"></line>
                <text fill="#000" y="9" x="0.5" dy="0.71em" style="font-size: 12px;">2013</text>
            </g>
            <g class="tick" opacity="1" transform="translate(194.58009012699713,0)">
                <line stroke="#000" y2="6" x1="0.5" x2="0.5"></line>
                <text fill="#000" y="9" x="0.5" dy="0.71em" style="font-size: 12px;">2014</text>
            </g>
            <g class="tick" opacity="1" transform="translate(230.46702171241296,0)">
                <line stroke="#000" y2="6" x1="0.5" x2="0.5"></line>
                <text fill="#000" y="9" x="0.5" dy="0.71em" style="font-size: 12px;">2015</text>
            </g>
            <g class="tick" opacity="1" transform="translate(266.35395329782875,0)">
                <line stroke="#000" y2="6" x1="0.5" x2="0.5"></line>
                <text fill="#000" y="9" x="0.5" dy="0.71em" style="font-size: 12px;">2016</text>
            </g>
            <g class="tick" opacity="1" transform="translate(302.33920524375253,0)">
                <line stroke="#000" y2="6" x1="0.5" x2="0.5"></line>
                <text fill="#000" y="9" x="0.5" dy="0.71em" style="font-size: 12px;">2017</text>
            </g>
            <g class="tick" opacity="1" transform="translate(338.2261368291684,0)">
                <line stroke="#000" y2="6" x1="0.5" x2="0.5"></line>
                <text fill="#000" y="9" x="0.5" dy="0.71em" style="font-size: 12px;">2018</text>
            </g>
            <g class="tick" opacity="1" transform="translate(374.1130684145842,0)">
                <line stroke="#000" y2="6" x1="0.5" x2="0.5"></line>
                <text fill="#000" y="9" x="0.5" dy="0.71em" style="font-size: 12px;">2019</text>
            </g>
            <g class="tick" opacity="1" transform="translate(410,0)">
                <line stroke="#000" y2="6" x1="0.5" x2="0.5"></line>
                <text fill="#000" y="9" x="0.5" dy="0.71em" style="font-size: 12px;">2020</text>
            </g>
        </g>
        <g class="grid-lines" transform="translate(0,300)" fill="none" font-size="10" font-family="sans-serif" text-anchor="middle">
            <path class="domain" stroke="#000" d="M0.5,-300V0.5H410.5V-300"></path>
            <g class="tick" opacity="1" transform="translate(15.047111839410078,0)">
                <line stroke="#000" y2="-300" x1="0.5" x2="0.5" style="stroke: #ccc; fill: none;"></line>
            </g>
            <g class="tick" opacity="1" transform="translate(50.934043424825894,0)">
                <line stroke="#000" y2="-300" x1="0.5" x2="0.5" style="stroke: #ccc; fill: none;"></line>
            </g>
            <g class="tick" opacity="1" transform="translate(86.82097501024171,0)">
                <line stroke="#000" y2="-300" x1="0.5" x2="0.5" style="stroke: #ccc; fill: none;"></line>
            </g>
            <g class="tick" opacity="1" transform="translate(122.70790659565752,0)">
                <line stroke="#000" y2="-300" x1="0.5" x2="0.5" style="stroke: #ccc; fill: none;"></line>
            </g>
            <g class="tick" opacity="1" transform="translate(158.6931585415813,0)">
                <line stroke="#000" y2="-300" x1="0.5" x2="0.5" style="stroke: #ccc; fill: none;"></line>
            </g>
            <g class="tick" opacity="1" transform="translate(194.58009012699713,0)">
                <line stroke="#000" y2="-300" x1="0.5" x2="0.5" style="stroke: #ccc; fill: none;"></line>
            </g>
            <g class="tick" opacity="1" transform="translate(230.46702171241296,0)">
                <line stroke="#000" y2="-300" x1="0.5" x2="0.5" style="stroke: #ccc; fill: none;"></line>
            </g>
            <g class="tick" opacity="1" transform="translate(266.35395329782875,0)">
                <line stroke="#000" y2="-300" x1="0.5" x2="0.5" style="stroke: #ccc; fill: none;"></line>
            </g>
            <g class="tick" opacity="1" transform="translate(302.33920524375253,0)">
                <line stroke="#000" y2="-300" x1="0.5" x2="0.5" style="stroke: #ccc; fill: none;"></line>
            </g>
            <g class="tick" opacity="1" transform="translate(338.2261368291684,0)">
                <line stroke="#000" y2="-300" x1="0.5" x2="0.5" style="stroke: #ccc; fill: none;"></line>
            </g>
            <g class="tick" opacity="1" transform="translate(374.1130684145842,0)">
                <line stroke="#000" y2="-300" x1="0.5" x2="0.5" style="stroke: #ccc; fill: none;"></line>
            </g>
            <g class="tick" opacity="1" transform="translate(410,0)">
                <line stroke="#000" y2="-300" x1="0.5" x2="0.5" style="stroke: #ccc; fill: none;"></line>
            </g>
        </g>
        <text x="205" y="360" class="axis-label x-axis-label" style="text-anchor: middle; font-weight: bold;">Year</text>
        <g fill="none" font-size="10" font-family="sans-serif" text-anchor="end">
            <path class="domain" stroke="#000" d="M-6,300.5H0.5V0.5H-6"></path>
            <g class="tick" opacity="1" transform="translate(0,300)">
                <line stroke="#000" x2="-6" y1="0.5" y2="0.5"></line>
                <text fill="#000" x="-9" y="0.5" dy="0.32em" style="font-size: 12px;">0.00%</text>
            </g>
            <g class="tick" opacity="1" transform="translate(0,262.5)">
                <line stroke="#000" x2="-6" y1="0.5" y2="0.5"></line>
                <text fill="#000" x="-9" y="0.5" dy="0.32em" style="font-size: 12px;">1.00%</text>
            </g>
            <g class="tick" opacity="1" transform="translate(0,225)">
                <line stroke="#000" x2="-6" y1="0.5" y2="0.5"></line>
                <text fill="#000" x="-9" y="0.5" dy="0.32em" style="font-size: 12px;">2.00%</text>
            </g>
            <g class="tick" opacity="1" transform="translate(0,187.5)">
                <line stroke="#000" x2="-6" y1="0.5" y2="0.5"></line>
                <text fill="#000" x="-9" y="0.5" dy="0.32em" style="font-size: 12px;">3.00%</text>
            </g>
            <g class="tick" opacity="1" transform="translate(0,150)">
                <line stroke="#000" x2="-6" y1="0.5" y2="0.5"></line>
                <text fill="#000" x="-9" y="0.5" dy="0.32em" style="font-size: 12px;">4.00%</text>
            </g>
            <g class="tick" opacity="1" transform="translate(0,112.5)">
                <line stroke="#000" x2="-6" y1="0.5" y2="0.5"></line>
                <text fill="#000" x="-9" y="0.5" dy="0.32em" style="font-size: 12px;">5.00%</text>
            </g>
            <g class="tick" opacity="1" transform="translate(0,75)">
                <line stroke="#000" x2="-6" y1="0.5" y2="0.5"></line>
                <text fill="#000" x="-9" y="0.5" dy="0.32em" style="font-size: 12px;">6.00%</text>
            </g>
            <g class="tick" opacity="1" transform="translate(0,37.49999999999994)">
                <line stroke="#000" x2="-6" y1="0.5" y2="0.5"></line>
                <text fill="#000" x="-9" y="0.5" dy="0.32em" style="font-size: 12px;">7.00%</text>
            </g>
            <g class="tick" opacity="1" transform="translate(0,0)">
                <line stroke="#000" x2="-6" y1="0.5" y2="0.5"></line>
                <text fill="#000" x="-9" y="0.5" dy="0.32em" style="font-size: 12px;">8.00%</text>
            </g>
        </g>
        <g class="grid-lines" fill="none" font-size="10" font-family="sans-serif" text-anchor="end">
            <path class="domain" stroke="#000" d="M410,300.5H0.5V0.5H410"></path>
            <g class="tick" opacity="1" transform="translate(0,300)">
                <line stroke="#000" x2="410" y1="0.5" y2="0.5" style="stroke: #ccc; fill: none;"></line>
            </g>
            <g class="tick" opacity="1" transform="translate(0,262.5)">
                <line stroke="#000" x2="410" y1="0.5" y2="0.5" style="stroke: #ccc; fill: none;"></line>
            </g>
            <g class="tick" opacity="1" transform="translate(0,225)">
                <line stroke="#000" x2="410" y1="0.5" y2="0.5" style="stroke: #ccc; fill: none;"></line>
            </g>
            <g class="tick" opacity="1" transform="translate(0,187.5)">
                <line stroke="#000" x2="410" y1="0.5" y2="0.5" style="stroke: #ccc; fill: none;"></line>
            </g>
            <g class="tick" opacity="1" transform="translate(0,150)">
                <line stroke="#000" x2="410" y1="0.5" y2="0.5" style="stroke: #ccc; fill: none;"></line>
            </g>
            <g class="tick" opacity="1" transform="translate(0,112.5)">
                <line stroke="#000" x2="410" y1="0.5" y2="0.5" style="stroke: #ccc; fill: none;"></line>
            </g>
            <g class="tick" opacity="1" transform="translate(0,75)">
                <line stroke="#000" x2="410" y1="0.5" y2="0.5" style="stroke: #ccc; fill: none;"></line>
            </g>
            <g class="tick" opacity="1" transform="translate(0,37.49999999999994)">
                <line stroke="#000" x2="410" y1="0.5" y2="0.5" style="stroke: #ccc; fill: none;"></line>
            </g>
            <g class="tick" opacity="1" transform="translate(0,0)">
                <line stroke="#000" x2="410" y1="0.5" y2="0.5" style="stroke: #ccc; fill: none;"></line>
            </g>
        </g>
        <g class="lines">
            <path class="line" d="M3.047931175747644,300L5.9975419909873,300L9.049569848422777,300L11.999180663662434,300L15.047111839410078,300L18.095043015157724,300L20.8480131093814,300L23.89184760344121,300L26.841458418680872,300L29.88938959442851,300L32.839000409668174,300L35.886931585415816,300L38.93486276116346,300L41.88447357640312,299.8959345081375L44.936501433838586,300L47.886112249078245,300L50.934043424825894,300L53.98197460057353,300L56.73494469479721,300L59.77877918885702,300L62.72839000409668,300L65.77632117984432,300L68.72593199508398,300L71.77386317083163,300L74.82179434657927,300L77.77140516181893,300L80.8234330192544,300L83.77304383449406,300L86.82097501024171,300L89.86890618598935,300L92.62187628021303,299.9627787868875L95.66571077427284,300L98.61532158951249,299.9625886648875L101.66325276526014,300L104.61286358049979,299.925510254775L107.66079475624744,299.9650313785125L110.70872593199508,299.92651597545L113.65833674723474,299.8890423118875L116.71036460467023,299.9655634734375L119.65997541990987,299.9638707439875L122.70790659565752,299.9677610708625L125.75583777140515,299.9094399768375L128.60712822613684,299.804246180025L131.65096272019665,299.710019409375L134.6005735354363,299.0522982696375L137.64850471118393,297.93678933855L140.59811552642358,297.4891106694375L143.64604670217122,295.3495376112L146.69397787791888,294.6811334779875L149.64358869315853,292.7956542985125L152.69561655059402,292.274643210525L155.64522736583368,290.4690452373375L158.6931585415813,285.4007760849L161.74108971732898,283.3519393530375L164.49405981155263,280.0214711775375L167.53789430561247,275.5499799160875L170.48750512085212,272.35491198525L173.53543629659976,270.2290798939875L176.4850471118394,264.68547091695L179.53297828758707,257.5808298828375L182.5809094633347,255.3544503817875L185.53052027857436,254.7715414249125L188.58254813600982,253.6777568316L191.5321589512495,250.9795046350125L194.58009012699713,242.89551465419999L197.62802130274477,239.1709880347875L200.38099139696845,236.76790525455L203.42482589102826,232.0272480682125L206.37443670626791,222.400622436L209.42236788201558,215.52872759396251L212.37197869725523,208.153869547125L215.4199098730029,202.67857142857503L218.4678410487505,204.1311012262875L221.41745186399015,203.31232379722502L224.46947972142564,205.28701721565L227.4190905366653,199.50491866522498L230.46702171241296,194.7088624370625L233.5149528881606,196.731043923375L236.26792298238425,194.7691966735875L239.31175747644406,193.7842035202125L242.2613682916837,183.30434453816252L245.30929946743137,179.8375945630125L248.25891028267102,173.40976388298748L251.3068414584187,173.448699230175L254.3547726341663,174.82152632381252L257.304383449406,177.1660348504125L260.35641130684144,177.7582536411L263.3060221220811,175.54049571386253L266.35395329782875,171.515401799325L269.4018844735764,176.635394388075L272.25317492830806,179.77726842393753L275.29700942236786,180.16452961995L278.24662023760754,176.2667126485875L281.2945514133552,175.93791238155L284.24416222859486,177.4006900119L287.29209340434244,179.1628602275625L290.34002458009013,187.91394418575L293.28963539532975,202.027589214525L296.3416632527653,203.196211982025L299.29127406800495,201.4712998809L302.33920524375253,206.6760441463125L305.3871364195002,215.099381130525L308.1401065137239,216.1834337259375L311.1839410077837,222.227136482475L314.13355182302337,225.68748684915L317.181482998771,230.6026014498L320.1310938140106,236.0329065595125L323.1790249897583,241.412233227825L326.22695616550595,241.3927886197875L329.1765669807456,250.683873944775L332.2285948381811,253.0914939242625L335.1782056534207,255.2480565958125L338.2261368291684,257.759876434725L341.274068004916,262.2714091258875L344.0270380991397,268.60006055808753L347.0708725931995,268.7459334858L350.02048340843913,269.5970310715875L353.0684145841868,272.753533309425L356.01802539942645,276.0247144445625L359.06595657517414,278.100276427425L362.1138877509217,278.4188451034125L365.06349856616146,280.0568149786125L368.11552642359686,281.2140375820125L371.06513723883654,281.3509327381125L374.1130684145842,281.4407067166125L377.1609995903318,281.6462684623125L379.9139696845555,284.434724091525L382.9578041786153,284.9357877433125L385.907414993855,285.7904589029625L388.9553461696026,286.8501838759125L391.9049569848423,287.85760866483747L394.9528881605899,289.028574678375L398.0008193363376,290.0279155350375L400.9504301515772,289.716712929825L404.0024580090127,291.226611465075L406.95206882425236,290.3495136864375L410,290.42429059425" data-legend="angularjs" style="stroke: rgb(31, 119, 180); fill: none;"></path>
            <path class="line" d="M3.047931175747644,300L5.9975419909873,300L9.049569848422777,300L11.999180663662434,300L15.047111839410078,300L18.095043015157724,300L20.8480131093814,300L23.89184760344121,300L26.841458418680872,300L29.88938959442851,300L32.839000409668174,300L35.886931585415816,300L38.93486276116346,300L41.88447357640312,300L44.936501433838586,300L47.886112249078245,300L50.934043424825894,300L53.98197460057353,300L56.73494469479721,300L59.77877918885702,300L62.72839000409668,300L65.77632117984432,300L68.72593199508398,300L71.77386317083163,300L74.82179434657927,300L77.77140516181893,300L80.8234330192544,300L83.77304383449406,300L86.82097501024171,300L89.86890618598935,300L92.62187628021303,300L95.66571077427284,300L98.61532158951249,300L101.66325276526014,300L104.61286358049979,300L107.66079475624744,300L110.70872593199508,300L113.65833674723474,300L116.71036460467023,300L119.65997541990987,300L122.70790659565752,300L125.75583777140515,300L128.60712822613684,300L131.65096272019665,300L134.6005735354363,300L137.64850471118393,300L140.59811552642358,300L143.64604670217122,300L146.69397787791888,300L149.64358869315853,300L152.69561655059402,300L155.64522736583368,300L158.6931585415813,300L161.74108971732898,300L164.49405981155263,300L167.53789430561247,299.9781696249375L170.48750512085212,300L173.53543629659976,300L176.4850471118394,300L179.53297828758707,300L182.5809094633347,300L185.53052027857436,300L188.58254813600982,300L191.5321589512495,300L194.58009012699713,300L197.62802130274477,300L200.38099139696845,300L203.42482589102826,300L206.37443670626791,299.978780591325L209.42236788201558,300L212.37197869725523,299.9788810921125L215.4199098730029,299.977106227125L218.4678410487505,300L221.41745186399015,299.97833572125L224.46947972142564,299.955027073725L227.4190905366653,300L230.46702171241296,299.9774101828875L233.5149528881606,299.9330436853125L236.26792298238425,299.584459031625L239.31175747644406,299.72267416065L242.2613682916837,299.169498025725L245.30929946743137,298.7987763535125L248.25891028267102,298.7683528258875L251.3068414584187,298.5067693124625L254.3547726341663,298.3704577391625L257.304383449406,297.5364550800375L260.35641130684144,295.2691514885625L263.3060221220811,290.506771109175L266.35395329782875,281.02144666605L269.4018844735764,278.4391950633L272.25317492830806,274.2326473666125L275.29700942236786,270.79752439605L278.24662023760754,262.6153968591L281.2945514133552,255.0947182446L284.24416222859486,249.9968739165375L287.29209340434244,244.8135536915625L290.34002458009013,236.12678452031253L293.28963539532975,227.1823768728375L296.3416632527653,229.2330928972125L299.29127406800495,223.9688802859125L302.33920524375253,222.4151186232375L305.3871364195002,214.4313813373875L308.1401065137239,215.30312565555L311.1839410077837,212.6349387001125L314.13355182302337,210.452713529625L317.181482998771,203.2501185556875L320.1310938140106,196.439228112225L323.1790249897583,191.75941999387499L326.22695616550595,192.169250734275L329.1765669807456,193.31477723812498L332.2285948381811,186.19102930665L335.1782056534207,188.2499325087L338.2261368291684,186.34722605925L341.274068004916,189.945947012325L344.0270380991397,192.93887129085L347.0708725931995,187.7874444630375L350.02048340843913,184.585912614975L353.0684145841868,182.3481411365625L356.01802539942645,185.0986808854875L359.06595657517414,180.51663330476248L362.1138877509217,185.1966166880625L365.06349856616146,187.2939908920875L368.11552642359686,190.4780905884375L371.06513723883654,187.22296881764998L374.1130684145842,189.3676536130875L377.1609995903318,189.1332262246875L379.9139696845555,192.153432032325L382.9578041786153,196.1495088001125L385.907414993855,193.3646264677875L388.9553461696026,189.6507307563375L391.9049569848423,195.0353001219375L394.9528881605899,195.7596112529625L398.0008193363376,191.9848386507375L400.9504301515772,196.558526593875L404.0024580090127,194.1817524987L406.95206882425236,197.40009287688753L410,205.46893496130002" data-legend="angular" style="stroke: rgb(255, 127, 14); fill: none;"></path>
            <path class="line" d="M3.047931175747644,263.09267241382497L5.9975419909873,233.035714285725L9.049569848422777,221.2159796275875L11.999180663662434,217.613399047725L15.047111839410078,208.7283934926375L18.095043015157724,191.3386504475625L20.8480131093814,194.04063316732498L23.89184760344121,175.384069959825L26.841458418680872,160.5190081351875L29.88938959442851,144.13464625923748L32.839000409668174,138.11858076566253L35.886931585415816,112.2053067891375L38.93486276116346,112.0073929248L41.88447357640312,112.99431108645001L44.936501433838586,120.18797189598749L47.886112249078245,109.70716993222501L50.934043424825894,103.489414136925L53.98197460057353,103.04852012497497L56.73494469479721,89.88439306361252L59.77877918885702,92.14414957781253L62.72839000409668,98.29188038324997L65.77632117984432,91.83955116180002L68.72593199508398,81.66236729835L71.77386317083163,75.32325034338751L74.82179434657927,73.61234348812502L77.77140516181893,77.1978887663625L80.8234330192544,79.8382558760625L83.77304383449406,69.9183761918625L86.82097501024171,68.69967642412499L89.86890618598935,71.08571980725L92.62187628021303,66.3996664979625L95.66571077427284,56.49911078565003L98.61532158951249,53.16001077450002L101.66325276526014,49.52087956428747L104.61286358049979,28.596613199587523L107.66079475624744,28.258842398775016L110.70872593199508,37.110902089912486L113.65833674723474,34.700167669425014L116.71036460467023,41.14062959156246L119.65997541990987,30.981559627725005L122.70790659565752,34.44794057722504L125.75583777140515,30.644304378300035L128.60712822613684,40.626188505337495L131.65096272019665,39.539433493950014L134.6005735354363,28.567074983662508L137.64850471118393,28.88838794474998L140.59811552642358,31.731297839062506L143.64604670217122,25.038089501475042L146.69397787791888,37.89649732256254L149.64358869315853,42.85255273147499L152.69561655059402,42.34410365535001L155.64522736583368,40.35789707681249L158.6931585415813,36.547120801237554L161.74108971732898,36.722116932375L164.49405981155263,34.2511209217875L167.53789430561247,34.62996058890002L170.48750512085212,34.56220369563749L173.53543629659976,27.18667171526255L176.4850471118394,28.958338046662504L179.53297828758707,17.57994890321254L182.5809094633347,6.026923030537489L185.53052027857436,19.26252824242499L188.58254813600982,35.39851565021252L191.5321589512495,26.22302288531256L194.58009012699713,26.05709391045002L197.62802130274477,28.570707500062497L200.38099139696845,40.51608627374998L203.42482589102826,37.72324289958749L206.37443670626791,38.152496817112535L209.42236788201558,39.63892671798749L212.37197869725523,44.059955171625035L215.4199098730029,42.742673992687514L218.4678410487505,53.95978600627498L221.41745186399015,64.96423949718752L224.46947972142564,69.87353613127502L227.4190905366653,74.368289076075L230.46702171241296,74.9376521047875L233.5149528881606,75.62938935843749L236.26792298238425,77.80430790663752L239.31175747644406,80.45698015935L242.2613682916837,69.46480562205L245.30929946743137,69.48518223900004L248.25891028267102,74.91647892603751L251.3068414584187,72.0956663127375L254.3547726341663,76.16014943820005L257.304383449406,85.36869709439998L260.35641130684144,93.25769607678751L263.3060221220811,90.31967084321249L266.35395329782875,88.78304443991249L269.4018844735764,94.63233294045L272.25317492830806,105.65175145747497L275.29700942236786,108.14452257303748L278.24662023760754,103.0692911715L281.2945514133552,113.83529822343749L284.24416222859486,100.32852295398752L287.29209340434244,103.9407025994625L290.34002458009013,112.42741680059999L293.28963539532975,122.36717526153751L296.3416632527653,120.39074703667498L299.29127406800495,111.01567153068748L302.33920524375253,120.20723470657501L305.3871364195002,119.4245720491875L308.1401065137239,124.35044502382502L311.1839410077837,128.4813621202875L314.13355182302337,127.92596668987503L317.181482998771,128.41186233997502L320.1310938140106,134.73942908969997L323.1790249897583,133.8524115865125L326.22695616550595,142.13075361221252L329.1765669807456,148.8570549643125L332.2285948381811,150.87562544677502L335.1782056534207,153.33614835633747L338.2261368291684,157.4101514428875L341.274068004916,171.52551735022502L344.0270380991397,178.3962011459625L347.0708725931995,183.7674046809375L350.02048340843913,189.36384398103752L353.0684145841868,190.0594052942625L356.01802539942645,190.0027165672875L359.06595657517414,187.141359260325L362.1138877509217,194.288919235275L365.06349856616146,200.5659573668625L368.11552642359686,204.15889856085L371.06513723883654,205.9574516548125L374.1130684145842,208.251235623225L377.1609995903318,212.9070077602125L379.9139696845555,213.20995962314998L382.9578041786153,213.19142490056248L385.907414993855,218.01860570651252L388.9553461696026,220.24660256857499L391.9049569848423,216.3642292098L394.9528881605899,221.3754012587625L398.0008193363376,221.7120477904125L400.9504301515772,227.954031608175L404.0024580090127,228.1571296684125L406.95206882425236,226.7627254198875L410,226.5439510264875" data-legend="jquery" style="stroke: rgb(44, 160, 44); fill: none;"></path>
            <path class="line" d="M3.047931175747644,300L5.9975419909873,300L9.049569848422777,300L11.999180663662434,300L15.047111839410078,300L18.095043015157724,300L20.8480131093814,300L23.89184760344121,300L26.841458418680872,300L29.88938959442851,300L32.839000409668174,300L35.886931585415816,300L38.93486276116346,300L41.88447357640312,300L44.936501433838586,300L47.886112249078245,300L50.934043424825894,300L53.98197460057353,300L56.73494469479721,300L59.77877918885702,300L62.72839000409668,300L65.77632117984432,300L68.72593199508398,300L71.77386317083163,300L74.82179434657927,300L77.77140516181893,300L80.8234330192544,300L83.77304383449406,300L86.82097501024171,300L89.86890618598935,300L92.62187628021303,300L95.66571077427284,300L98.61532158951249,300L101.66325276526014,300L104.61286358049979,300L107.66079475624744,300L110.70872593199508,300L113.65833674723474,300L116.71036460467023,300L119.65997541990987,300L122.70790659565752,300L125.75583777140515,300L128.60712822613684,300L131.65096272019665,300L134.6005735354363,300L137.64850471118393,300L140.59811552642358,300L143.64604670217122,300L146.69397787791888,300L149.64358869315853,300L152.69561655059402,300L155.64522736583368,300L158.6931585415813,300L161.74108971732898,300L164.49405981155263,300L167.53789430561247,300L170.48750512085212,299.9775243187125L173.53543629659976,299.9526694434L176.4850471118394,299.957580145275L179.53297828758707,299.977975508775L182.5809094633347,299.79644886195L185.53052027857436,299.8984086734625L188.58254813600982,299.8513951869375L191.5321589512495,299.524732039425L194.58009012699713,299.068086523875L197.62802130274477,299.0635559900625L200.38099139696845,299.1895630123875L203.42482589102826,299.3654594586375L206.37443670626791,298.62073843545L209.42236788201558,298.4357171776875L212.37197869725523,298.3104873681L215.4199098730029,298.2829670329875L218.4678410487505,297.858559749975L221.41745186399015,297.11865092205L224.46947972142564,296.4696252856125L227.4190905366653,295.9011123256125L230.46702171241296,295.504626394575L233.5149528881606,292.634805380325L236.26792298238425,292.500474903975L239.31175747644406,291.0067192089375L242.2613682916837,291.1075520313L245.30929946743137,289.4892930932625L248.25891028267102,287.6642837715375L251.3068414584187,287.577150252225L254.3547726341663,284.2548124404L257.304383449406,283.300396321125L260.35641130684144,279.978373263975L263.3060221220811,278.045544220275L266.35395329782875,276.09492186851253L269.4018844735764,277.059143541375L272.25317492830806,272.8125467138625L275.29700942236786,271.525192640625L278.24662023760754,269.519312393925L281.2945514133552,266.0143086168L284.24416222859486,261.442602265575L287.29209340434244,257.91462503115L290.34002458009013,259.3094185132875L293.28963539532975,259.352101038075L296.3416632527653,257.5097055040125L299.29127406800495,252.98075491365L302.33920524375253,251.8858415244L305.3871364195002,251.0205312969L308.1401065137239,251.41448649945L311.1839410077837,244.453991255775L314.13355182302337,238.8383535924375L317.181482998771,235.78941128651252L320.1310938140106,230.19672277987502L323.1790249897583,229.6266040369125L326.22695616550595,233.9184481934625L329.1765669807456,229.8304513213125L332.2285948381811,229.97230164405L335.1782056534207,226.14891010155L338.2261368291684,222.32432126981251L341.274068004916,219.167110532475L344.0270380991397,216.65259468022498L347.0708725931995,214.1616939007125L350.02048340843913,211.60826972774998L353.0684145841868,205.57985442442498L356.01802539942645,200.8531916506875L359.06595657517414,193.9090649128125L362.1138877509217,193.19157237615002L365.06349856616146,196.29073984755001L368.11552642359686,195.91017610687499L371.06513723883654,188.16254014533752L374.1130684145842,185.95014933915002L377.1609995903318,185.71370970243748L379.9139696845555,185.26917900405L382.9578041786153,186.6817776331875L385.907414993855,177.9213228203625L388.9553461696026,176.61959528317502L391.9049569848423,173.472454563525L394.9528881605899,166.58936379952502L398.0008193363376,165.991253552475L400.9504301515772,167.639404996425L404.0024580090127,163.47489262635L406.95206882425236,155.412012074025L410,151.50251970105" data-legend="reactjs" style="stroke: rgb(214, 39, 40); fill: none;"></path>
            <path class="line" d="M3.047931175747644,300L5.9975419909873,300L9.049569848422777,300L11.999180663662434,300L15.047111839410078,300L18.095043015157724,300L20.8480131093814,300L23.89184760344121,300L26.841458418680872,300L29.88938959442851,300L32.839000409668174,300L35.886931585415816,300L38.93486276116346,300L41.88447357640312,300L44.936501433838586,300L47.886112249078245,300L50.934043424825894,300L53.98197460057353,300L56.73494469479721,300L59.77877918885702,300L62.72839000409668,300L65.77632117984432,300L68.72593199508398,300L71.77386317083163,300L74.82179434657927,300L77.77140516181893,300L80.8234330192544,300L83.77304383449406,300L86.82097501024171,300L89.86890618598935,300L92.62187628021303,300L95.66571077427284,300L98.61532158951249,300L101.66325276526014,300L104.61286358049979,300L107.66079475624744,300L110.70872593199508,300L113.65833674723474,300L116.71036460467023,300L119.65997541990987,300L122.70790659565752,300L125.75583777140515,300L128.60712822613684,300L131.65096272019665,300L134.6005735354363,300L137.64850471118393,300L140.59811552642358,300L143.64604670217122,300L146.69397787791888,300L149.64358869315853,300L152.69561655059402,300L155.64522736583368,300L158.6931585415813,300L161.74108971732898,300L164.49405981155263,300L167.53789430561247,300L170.48750512085212,300L173.53543629659976,300L176.4850471118394,300L179.53297828758707,300L182.5809094633347,300L185.53052027857436,300L188.58254813600982,300L191.5321589512495,300L194.58009012699713,300L197.62802130274477,300L200.38099139696845,299.9819902891875L203.42482589102826,300L206.37443670626791,299.9151223652625L209.42236788201558,300L212.37197869725523,299.9366432763375L215.4199098730029,300L218.4678410487505,299.954917047375L221.41745186399015,299.9566714424625L224.46947972142564,299.9325406105875L227.4190905366653,299.9276666881125L230.46702171241296,299.90964073155L233.5149528881606,299.9776812284625L236.26792298238425,299.9604246697125L239.31175747644406,299.900955057375L242.2613682916837,299.777182397175L245.30929946743137,299.259245418L248.25891028267102,299.1532425678L251.3068414584187,299.1289487656125L254.3547726341663,298.920692788275L257.304383449406,299.2326663364125L260.35641130684144,298.627209137325L263.3060221220811,298.275942339375L266.35395329782875,297.3600478933125L269.4018844735764,297.63991189005L272.25317492830806,297.7016792067375L275.29700942236786,296.476553763225L278.24662023760754,297.0354944821875L281.2945514133552,296.9531480047875L284.24416222859486,296.6323555323375L287.29209340434244,295.4530354621875L290.34002458009013,294.9191760414L293.28963539532975,293.200245594525L296.3416632527653,291.3425755765875L299.29127406800495,289.5538639071L302.33920524375253,288.8096675361L305.3871364195002,289.010325983925L308.1401065137239,287.0014084929375L311.1839410077837,287.6611376544L314.13355182302337,285.59474289045L317.181482998771,285.074690061675L320.1310938140106,283.898010939L323.1790249897583,283.491609653175L326.22695616550595,279.5328808887L329.1765669807456,281.9196388956375L332.2285948381811,280.633488205875L335.1782056534207,279.4411025660625L338.2261368291684,279.7275661150125L341.274068004916,276.524432345025L344.0270380991397,273.8843340942L347.0708725931995,273.509564441475L350.02048340843913,273.834064547175L353.0684145841868,271.9456865881125L356.01802539942645,270.457330941075L359.06595657517414,267.019349919L362.1138877509217,265.48582854915L365.06349856616146,267.1372015960875L368.11552642359686,266.099762597775L371.06513723883654,265.6914106097625L374.1130684145842,263.3553738799875L377.1609995903318,264.6184719025875L379.9139696845555,263.5598923284L382.9578041786153,263.728069929375L385.907414993855,264.15707073573753L388.9553461696026,259.6723148107125L391.9049569848423,261.212396155275L394.9528881605899,256.75410105405L398.0008193363376,257.03969299215L400.9504301515772,257.7126052113375L404.0024580090127,261.1433502876L406.95206882425236,255.39975748822502L410,257.2369533601875" data-legend="vue.js" style="stroke: rgb(148, 103, 189); fill: none;"></path>
            <path class="line" d="M3.047931175747644,75.32327586210002L5.9975419909873,59.39576411962503L9.049569848422777,24.255928696500007L11.999180663662434,35.92431709968753L15.047111839410078,54.30541433658749L18.095043015157724,44.59203580447502L20.8480131093814,19.845653138737475L23.89184760344121,36.05530607422497L26.841458418680872,70.90503754695001L29.88938959442851,76.30311463128751L32.839000409668174,75.09337068161247L35.886931585415816,86.5496625474L38.93486276116346,86.23144131487501L41.88447357640312,88.1226585264375L44.936501433838586,97.87122483225005L47.886112249078245,109.80727136835L50.934043424825894,113.90724767561252L53.98197460057353,117.79670539589998L56.73494469479721,119.07514450867501L59.77877918885702,127.65379975875001L62.72839000409668,123.6959256750375L65.77632117984432,136.015298022825L68.72593199508398,138.02956642526252L71.77386317083163,137.8419980739375L74.82179434657927,144.6588780439875L77.77140516181893,150.8744288640375L80.8234330192544,156.9408573448875L83.77304383449406,159.57815660216252L86.82097501024171,155.237414402925L89.86890618598935,156.9172514584875L92.62187628021303,155.28392341365L95.66571077427284,149.78815775711251L98.61532158951249,156.1908277382625L101.66325276526014,160.3111761145875L104.61286358049979,160.2199930476375L107.66079475624744,169.3572301122L110.70872593199508,174.3423179800875L113.65833674723474,174.02603807085L116.71036460467023,176.75167131945L119.65997541990987,179.5089311521125L122.70790659565752,181.876563588075L125.75583777140515,187.88669129902502L128.60712822613684,189.95838833085L131.65096272019665,191.8662377531625L134.6005735354363,194.16401557950002L137.64850471118393,193.05691404817503L140.59811552642358,198.1107540068625L143.64604670217122,198.27445700317497L146.69397787791888,197.8891400312625L149.64358869315853,198.96344443035L152.69561655059402,207.21948145237502L155.64522736583368,206.6355451817625L158.6931585415813,207.355659005325L161.74108971732898,205.3689184277625L164.49405981155263,207.5993041960875L167.53789430561247,206.9152806804375L170.48750512085212,208.681306826025L173.53543629659976,210.8765619084L176.4850471118394,210.2820071944125L179.53297828758707,214.963439344575L182.5809094633347,212.1337587301125L185.53052027857436,213.26132540111252L188.58254813600982,216.63269985225L191.5321589512495,215.5833574739625L194.58009012699713,216.7622814299625L197.62802130274477,219.9838480012125L200.38099139696845,223.5667872117L203.42482589102826,221.7207713962125L206.37443670626791,222.5915971141875L209.42236788201558,224.1092789576625L212.37197869725523,228.3435454986L215.4199098730029,230.3113553113875L218.4678410487505,232.0149074296875L221.41745186399015,235.96039192125L224.46947972142564,235.91358002486248L227.4190905366653,235.38224136825L230.46702171241296,238.691236355775L233.5149528881606,237.775264849425L236.26792298238425,236.7784098104625L239.31175747644406,241.18711306443748L242.2613682916837,237.5503027618875L245.30929946743137,236.6955138301125L248.25891028267102,239.6877774413625L251.3068414584187,239.130110167275L254.3547726341663,240.36298582935L257.304383449406,244.953906132225L260.35641130684144,246.92579326192498L263.3060221220811,244.0226848161L266.35395329782875,245.891375325L269.4018844735764,244.397924189175L272.25317492830806,246.6714833823375L275.29700942236786,246.822770654325L278.24662023760754,242.202090407475L281.2945514133552,246.64941707655L284.24416222859486,248.73933579255L287.29209340434244,244.8135536915625L290.34002458009013,251.1932971248375L293.28963539532975,251.5194725456625L296.3416632527653,252.38416567125L299.29127406800495,252.1199374627875L302.33920524375253,251.07432886481251L305.3871364195002,254.9854332948375L308.1401065137239,253.3062123528L311.1839410077837,253.5179843144625L314.13355182302337,252.3331660813125L317.181482998771,255.28758214215L320.1310938140106,254.8010659083L323.1790249897583,257.09094931755L326.22695616550595,256.8304450143375L329.1765669807456,261.243692209425L332.2285948381811,260.9989278055875L335.1782056534207,261.426109107525L338.2261368291684,258.3485069191875L341.274068004916,265.6743800674875L344.0270380991397,267.551940187275L347.0708725931995,266.770769430975L350.02048340843913,266.6220926738625L353.0684145841868,268.7632601103375L356.01802539942645,265.81389618922503L359.06595657517414,266.209131636675L362.1138877509217,267.81115879829997L365.06349856616146,269.7446144787375L368.11552642359686,272.21085880605L371.06513723883654,271.841332027425L374.1130684145842,271.5873184815L377.1609995903318,270.6665963637L379.9139696845555,270.80753701215L382.9578041786153,271.0287426292125L385.907414993855,270.7725906177375L388.9553461696026,272.2999360707L391.9049569848423,274.035271768425L394.9528881605899,274.360513611225L398.0008193363376,274.1718286251L400.9504301515772,275.7188507342625L404.0024580090127,275.0775556078125L406.95206882425236,272.7899821986375L410,272.7525619779" data-legend="asp.net" style="stroke: rgb(140, 86, 75); fill: none;"></path>
            <path class="line" d="M3.047931175747644,289.7629310344875L5.9975419909873,287.80107973425L9.049569848422777,290.1519974534625L11.999180663662434,290.289031826925L15.047111839410078,287.6080325368875L18.095043015157724,288.59593757174997L20.8480131093814,291.6785837566125L23.89184760344121,288.300638147025L26.841458418680872,283.7198842303125L29.88938959442851,285.0155196403875L32.839000409668174,284.9439775910625L35.886931585415816,288.9056673549375L38.93486276116346,286.825624732725L41.88447357640312,283.9739142500625L44.936501433838586,286.5313024329L47.886112249078245,284.3841759649875L50.934043424825894,281.6847765207L53.98197460057353,279.7739173427625L56.73494469479721,282.6589595376L59.77877918885702,284.9215922798625L62.72839000409668,283.0881641343375L65.77632117984432,282.8167845288L68.72593199508398,281.2109336244L71.77386317083163,282.83102571795L74.82179434657927,280.7132998126875L77.77140516181893,282.1569245313L80.8234330192544,277.8160936125L83.77304383449406,280.551141288675L86.82097501024171,281.281511024175L89.86890618598935,278.5760873503875L92.62187628021303,278.0767054759875L95.66571077427284,280.659587823L98.61532158951249,281.59362311325L101.66325276526014,281.1630018156375L104.61286358049979,281.1540944530125L107.66079475624744,280.6973209373625L110.70872593199508,276.705564210375L113.65833674723474,276.6249136996125L116.71036460467023,277.7884403467875L119.65997541990987,277.7082490317375L122.70790659565752,276.3043870735125L125.75583777140515,276.6355140187125L128.60712822613684,277.8798183404625L131.65096272019665,277.5555022850625L134.6005735354363,277.3666527918375L137.64850471118393,278.193009536625L140.59811552642358,275.7104495284875L143.64604670217122,276.48194734792503L146.69397787791888,275.1122555786625L149.64358869315853,275.4499996653375L152.69561655059402,276.5698060528875L155.64522736583368,274.4637101256L158.6931585415813,273.873819519L161.74108971732898,276.2935510670625L164.49405981155263,276.576897242625L167.53789430561247,275.8119444169875L170.48750512085212,273.4112690069625L173.53543629659976,277.3286633851125L176.4850471118394,275.8418927173875L179.53297828758707,274.407541185825L182.5809094633347,273.7645199812125L185.53052027857436,274.1348482632L188.58254813600982,275.522664356925L191.5321589512495,272.9097262456875L194.58009012699713,271.8839721457125L197.62802130274477,272.5841072833125L200.38099139696845,271.1304335297625L203.42482589102826,270.9265061044125L206.37443670626791,266.9826000849L209.42236788201558,265.884831977625L212.37197869725523,263.95002421635L215.4199098730029,266.8269230769375L218.4678410487505,264.5647992306L221.41745186399015,267.2002819245L224.46947972142564,263.819280792975L227.4190905366653,264.918343727925L230.46702171241296,264.2629093275L233.5149528881606,265.919235805275L236.26792298238425,263.8281480856125L239.31175747644406,263.92783189301247L242.2613682916837,265.8481383252L245.30929946743137,265.064412281325L248.25891028267102,263.43547451775L251.3068414584187,260.45012609505L254.3547726341663,260.0867960518875L257.304383449406,264.3189846425625L260.35641130684144,263.3992836144L263.3060221220811,263.620201009125L266.35395329782875,262.33391167455L269.4018844735764,261.5785655998125L272.25317492830806,262.1057352135375L275.29700942236786,261.05059975185L278.24662023760754,261.2823641766L281.2945514133552,263.6422627681875L284.24416222859486,261.8475721699125L287.29209340434244,256.79345569305L290.34002458009013,261.0250214083875L293.28963539532975,262.2355411973625L296.3416632527653,262.441422401925L299.29127406800495,260.79790798095L302.33920524375253,262.4995728880875L305.3871364195002,261.7085279870625L308.1401065137239,260.23629716205L311.1839410077837,259.32823627515L314.13355182302337,256.0558729747875L317.181482998771,256.5154799810625L320.1310938140106,258.4119422035875L323.1790249897583,254.9848531264125L326.22695616550595,256.993436861625L329.1765669807456,257.960387370825L332.2285948381811,256.28573981418754L335.1782056534207,257.220880086975L338.2261368291684,256.676796343275L341.274068004916,258.350594780175L344.0270380991397,258.6865887175875L347.0708725931995,259.40456936778753L350.02048340843913,258.981909970575L353.0684145841868,260.1462284166375L356.01802539942645,259.2277999596L359.06595657517414,257.8924792679625L362.1138877509217,258.11792820915L365.06349856616146,258.3988449082875L368.11552642359686,258.1528226725875L371.06513723883654,257.5199872446375L374.1130684145842,261.659094386325L377.1609995903318,261.292003449L379.9139696845555,260.693135935425L382.9578041786153,262.8864938256375L385.907414993855,262.9020364173L388.9553461696026,263.7074569426875L391.9049569848423,261.7865547648375L394.9528881605899,262.67819680005L398.0008193363376,262.120257352275L400.9504301515772,262.8962213467125L404.0024580090127,262.4980646937375L406.95206882425236,262.365522045375L410,262.1410694355375" data-legend="spring" style="stroke: rgb(227, 119, 194); fill: none;"></path>
            <path class="line" d="M3.047931175747644,300L5.9975419909873,300L9.049569848422777,300L11.999180663662434,300L15.047111839410078,300L18.095043015157724,300L20.8480131093814,300L23.89184760344121,300L26.841458418680872,300L29.88938959442851,300L32.839000409668174,300L35.886931585415816,300L38.93486276116346,300L41.88447357640312,300L44.936501433838586,300L47.886112249078245,300L50.934043424825894,300L53.98197460057353,300L56.73494469479721,300L59.77877918885702,300L62.72839000409668,300L65.77632117984432,300L68.72593199508398,300L71.77386317083163,300L74.82179434657927,300L77.77140516181893,300L80.8234330192544,300L83.77304383449406,300L86.82097501024171,300L89.86890618598935,299.9547063157875L92.62187628021303,300L95.66571077427284,300L98.61532158951249,300L101.66325276526014,300L104.61286358049979,300L107.66079475624744,300L110.70872593199508,300L113.65833674723474,300L116.71036460467023,299.9655634734375L119.65997541990987,300L122.70790659565752,299.9677610708625L125.75583777140515,300L128.60712822613684,299.972035168575L131.65096272019665,300L134.6005735354363,300L137.64850471118393,300L140.59811552642358,300L143.64604670217122,300L146.69397787791888,300L149.64358869315853,300L152.69561655059402,300L155.64522736583368,300L158.6931585415813,300L161.74108971732898,299.975660730075L164.49405981155263,299.9784714129375L167.53789430561247,299.9781696249375L170.48750512085212,300L173.53543629659976,300L176.4850471118394,300L179.53297828758707,300L182.5809094633347,299.90953282755L185.53052027857436,299.715544285725L188.58254813600982,299.5117270426875L191.5321589512495,299.23051854L194.58009012699713,299.127570362775L197.62802130274477,299.362421099625L200.38099139696845,298.8113590848375L203.42482589102826,298.2694348872L206.37443670626791,297.9629367661875L209.42236788201558,297.032463469425L212.37197869725523,296.789925999375L215.4199098730029,296.58882783885L218.4678410487505,296.0552416446375L221.41745186399015,295.7754656376L224.46947972142564,295.772544927975L227.4190905366653,295.226001414525L230.46702171241296,294.44290499025L233.5149528881606,294.57653850735L236.26792298238425,293.9647621258875L239.31175747644406,293.32437086655L242.2613682916837,293.2344473313375L245.30929946743137,292.2921482683875L248.25891028267102,292.32144964875L251.3068414584187,291.911667109125L254.3547726341663,291.40786807905L257.304383449406,291.0545049217125L260.35641130684144,290.0736660697125L263.3060221220811,290.6377121973375L266.35395329782875,289.0452381084375L269.4018844735764,289.3596027585375L272.25317492830806,288.6952513827375L275.29700942236786,288.6062472234L278.24662023760754,287.8833297963L281.2945514133552,287.0355425169L284.24416222859486,285.1866271833L287.29209340434244,281.5837555020375L290.34002458009013,283.3498539538125L293.28963539532975,283.34490534858753L296.3416632527653,283.35276348435L299.29127406800495,280.8758933889375L302.33920524375253,281.5274091960375L305.3871364195002,279.70142564085L308.1401065137239,279.41577512062497L311.1839410077837,276.9068894798625L314.13355182302337,275.2763705226375L317.181482998771,276.3947225797875L320.1310938140106,277.3690427539125L323.1790249897583,275.2799618775375L326.22695616550595,273.8747353323L329.1765669807456,274.8206014068L332.2285948381811,273.1951393852875L335.1782056534207,273.3928410735L338.2261368291684,268.8025843233L341.274068004916,268.2882562979625L344.0270380991397,264.0800414590125L347.0708725931995,262.54159463130003L350.02048340843913,262.294909549875L353.0684145841868,262.6921695988875L356.01802539942645,259.27518194685L359.06595657517414,257.940139166925L362.1138877509217,256.68092636977497L365.06349856616146,256.519628416275L368.11552642359686,257.649851791275L371.06513723883654,254.6728014031125L374.1130684145842,255.3728821451625L377.1609995903318,254.825162679075L379.9139696845555,254.4751009421625L382.9578041786153,254.470732788375L385.907414993855,254.0529808837875L388.9553461696026,254.165532607125L391.9049569848423,252.9402591511125L394.9528881605899,251.1380582868L398.0008193363376,251.9354981001375L400.9504301515772,250.5772631626125L404.0024580090127,252.455975365725L406.95206882425236,253.0536492866625L410,254.04505022493748" data-legend="spring-boot" style="stroke: rgb(127, 127, 127); fill: none;"></path>
            <path class="line" d="M3.047931175747644,300L5.9975419909873,300L9.049569848422777,300L11.999180663662434,300L15.047111839410078,300L18.095043015157724,300L20.8480131093814,300L23.89184760344121,300L26.841458418680872,300L29.88938959442851,300L32.839000409668174,300L35.886931585415816,300L38.93486276116346,300L41.88447357640312,300L44.936501433838586,300L47.886112249078245,300L50.934043424825894,300L53.98197460057353,300L56.73494469479721,300L59.77877918885702,300L62.72839000409668,300L65.77632117984432,300L68.72593199508398,300L71.77386317083163,300L74.82179434657927,300L77.77140516181893,300L80.8234330192544,300L83.77304383449406,300L86.82097501024171,300L89.86890618598935,300L92.62187628021303,300L95.66571077427284,300L98.61532158951249,300L101.66325276526014,300L104.61286358049979,300L107.66079475624744,300L110.70872593199508,300L113.65833674723474,300L116.71036460467023,300L119.65997541990987,300L122.70790659565752,300L125.75583777140515,300L128.60712822613684,300L131.65096272019665,300L134.6005735354363,300L137.64850471118393,300L140.59811552642358,300L143.64604670217122,300L146.69397787791888,300L149.64358869315853,300L152.69561655059402,300L155.64522736583368,300L158.6931585415813,300L161.74108971732898,299.9513214601125L164.49405981155263,300L167.53789430561247,300L170.48750512085212,300L173.53543629659976,299.9763347217L176.4850471118394,300L179.53297828758707,299.977975508775L182.5809094633347,299.9773832068875L185.53052027857436,300L188.58254813600982,300L191.5321589512495,300L194.58009012699713,300L197.62802130274477,300L200.38099139696845,300L203.42482589102826,300L206.37443670626791,299.7453670957875L209.42236788201558,299.70094593105L212.37197869725523,299.72545419735L215.4199098730029,299.358974358975L218.4678410487505,299.6844193315875L221.41745186399015,299.6533715395125L224.46947972142564,298.853190379425L227.4190905366653,298.6497781778625L230.46702171241296,297.7184284716375L233.5149528881606,297.7904416141125L236.26792298238425,298.1201718097125L239.31175747644406,298.4350899064125L242.2613682916837,297.103371162825L245.30929946743137,297.6576138893625L248.25891028267102,296.940126551775L251.3068414584187,296.28766259625L254.3547726341663,295.8944000180625L257.304383449406,296.223910655475L260.35641130684144,294.635555705775L263.3060221220811,292.9510047546375L266.35395329782875,292.9739857318125L269.4018844735764,293.7397662846375L272.25317492830806,294.9549055758L275.29700942236786,294.4658915085L278.24662023760754,293.0960844652125L281.2945514133552,292.14771029415L284.24416222859486,289.9183808024625L287.29209340434244,288.3315339257625L290.34002458009013,289.04653536195L293.28963539532975,287.627029167225L296.3416632527653,286.6477533768375L299.29127406800495,287.2971262656375L302.33920524375253,286.738174694475L305.3871364195002,286.467617093925L308.1401065137239,285.503011777425L311.1839410077837,286.3723181285625L314.13355182302337,286.4444912031L317.181482998771,286.9588781248125L320.1310938140106,287.0470309639875L323.1790249897583,283.555430749875L326.22695616550595,284.3527826589375L329.1765669807456,284.7370693990125L332.2285948381811,286.8209435311125L335.1782056534207,286.9689816769875L338.2261368291684,285.496144862775L341.274068004916,284.8592452309125L344.0270380991397,284.1253435506L347.0708725931995,283.71070585395L350.02048340843913,280.84319971155L353.0684145841868,278.824623820875L356.01802539942645,279.8863464065625L359.06595657517414,278.6007053665125L362.1138877509217,279.0459004515L365.06349856616146,278.3185397235375L368.11552642359686,280.10750164305L371.06513723883654,275.3433706125L374.1130684145842,274.7304246020625L377.1609995903318,277.8080356312125L379.9139696845555,276.399730821L382.9578041786153,275.48909597895L385.907414993855,272.5381473708375L388.9553461696026,274.0801458348L391.9049569848423,273.078340752525L394.9528881605899,272.39371382355L398.0008193363376,270.4854656475375L400.9504301515772,271.7104674069L404.0024580090127,271.421977051575L406.95206882425236,270.1294471246875L410,268.672844725575" data-legend="asp.net-core" style="stroke: rgb(188, 189, 34); fill: none;"></path>
            <path class="line" d="M3.047931175747644,239.116379310375L5.9975419909873,241.08181063125L9.049569848422777,250.7599872672375L11.999180663662434,245.8065324534375L15.047111839410078,236.610320284725L18.095043015157724,243.625200826275L20.8480131093814,232.688988608925L23.89184760344121,232.64003781615L26.841458418680872,223.2927878598375L29.88938959442851,219.1908380605875L32.839000409668174,223.2026143791L35.886931585415816,216.0991093716375L38.93486276116346,219.006232052325L41.88447357640312,218.82891633135L44.936501433838586,220.1709312080625L47.886112249078245,214.713576424125L50.934043424825894,211.28038534785003L53.98197460057353,210.4153088972625L56.73494469479721,215.4624277456875L59.77877918885702,213.148371531975L62.72839000409668,205.9324494338625L65.77632117984432,208.8071871843L68.72593199508398,208.22502232365L71.77386317083163,210.543723654525L74.82179434657927,198.9450852805125L77.77140516181893,185.3198361430875L80.8234330192544,197.954030617425L83.77304383449406,191.97486275643752L86.82097501024171,193.05064338929998L89.86890618598935,193.46925464715L92.62187628021303,193.1006759372625L95.66571077427284,202.7487184852125L98.61532158951249,203.17946466873752L101.66325276526014,204.79372604399998L104.61286358049979,203.64751452551252L107.66079475624744,199.465213215375L110.70872593199508,203.2582816495875L113.65833674723474,203.577769010775L116.71036460467023,208.8120775786125L119.65997541990987,210.941383895025L122.70790659565752,207.8289015552375L125.75583777140515,208.9268033519625L128.60712822613684,207.49233763619998L131.65096272019665,210.0770188449L134.6005735354363,211.1390259856125L137.64850471118393,212.714726739225L140.59811552642358,209.18509747537502L143.64604670217122,210.68454806366248L146.69397787791888,218.16909634260003L149.64358869315853,216.93665530931253L152.69561655059402,218.2738571215875L155.64522736583368,217.8892964321625L158.6931585415813,217.667998247175L161.74108971732898,219.26664157020002L164.49405981155263,218.10525469755L167.53789430561247,220.078996850625L170.48750512085212,221.4924451743375L173.53543629659976,219.75104127225L176.4850471118394,218.7659781453L179.53297828758707,209.7436349220375L182.5809094633347,212.2920762819375L185.53052027857436,216.9998862177375L188.58254813600982,221.5154294254875L191.5321589512495,216.53389339515002L194.58009012699713,219.419226234225L197.62802130274477,223.55030497526252L200.38099139696845,224.14309795845L203.42482589102826,224.54736108052498L206.37443670626791,217.73235252513751L209.42236788201558,217.59910191765L212.37197869725523,220.3183604969625L215.4199098730029,219.1620879121125L218.4678410487505,231.13578985335L221.41745186399015,231.73585755881248L224.46947972142564,230.426883016425L227.4190905366653,227.7390214106625L230.46702171241296,227.78035469025L233.5149528881606,230.789489346525L236.26792298238425,230.3078433028125L239.31175747644406,232.273068227475L242.2613682916837,228.1919634417375L245.30929946743137,226.50513322905L248.25891028267102,226.4475703193625L251.3068414584187,225.4006835678625L254.3547726341663,230.289451853025L257.304383449406,234.7564456027875L260.35641130684144,236.97833947218749L263.3060221220811,234.027515087325L266.35395329782875,229.9685145869625L269.4018844735764,234.05753814809998L272.25317492830806,237.2726593253625L275.29700942236786,234.050278045875L278.24662023760754,239.6951931239625L281.2945514133552,236.5068762064875L284.24416222859486,238.23143248515L287.29209340434244,240.0797275974L290.34002458009013,240.4597815759L293.28963539532975,246.742429893675L296.3416632527653,247.4524487733375L299.29127406800495,246.6293180464875L302.33920524375253,247.230321529875L305.3871364195002,250.869692633925L308.1401065137239,253.6246216548375L311.1839410077837,256.07449517715L314.13355182302337,255.8535519479625L317.181482998771,257.3199647720625L320.1310938140106,256.0186869846375L323.1790249897583,258.388644950475L326.22695616550595,260.7422493496125L329.1765669807456,259.8017002195125L332.2285948381811,262.45085775555003L335.1782056534207,261.14056886538754L338.2261368291684,259.9024913981625L341.274068004916,263.8495985481L344.0270380991397,263.3594587040625L347.0708725931995,263.74993028835L350.02048340843913,265.720596189675L353.0684145841868,265.6297940398875L356.01802539942645,268.3962144951L359.06595657517414,268.7827661805375L362.1138877509217,268.6211052895875L365.06349856616146,268.4761433466375L368.11552642359686,270.4504607213625L371.06513723883654,269.3073366285L374.1130684145842,265.251215667L377.1609995903318,269.7128536602375L379.9139696845555,270.96904441455L382.9578041786153,273.67970735595L385.907414993855,274.1335299790125L388.9553461696026,273.4155341895375L391.9049569848423,275.2048541212125L394.9528881605899,273.3178727599125L398.0008193363376,273.344760008325L400.9504301515772,275.4670151325375L404.0024580090127,275.74416110925L406.95206882425236,273.8783829106875L410,274.4013596239125" data-legend="ruby-on-rails" style="stroke: rgb(23, 190, 207); fill: none;"></path>
            <path class="line" d="M3.047931175747644,268.2112068965625L5.9975419909873,268.8538205980125L9.049569848422777,268.6654464427875L11.999180663662434,270.867095480775L15.047111839410078,267.35193187597497L18.095043015157724,265.1422997475375L20.8480131093814,262.2762463632375L23.89184760344121,270.21980619240003L26.841458418680872,267.5864361702375L29.88938959442851,264.5456491491L32.839000409668174,264.169000933725L35.886931585415816,268.6816234707L38.93486276116346,266.3194232296875L41.88447357640312,262.74455390595L44.936501433838586,265.2959836409625L47.886112249078245,264.9644973573375L50.934043424825894,260.93312422987503L53.98197460057353,262.4974717396875L56.73494469479721,267.1242774566625L59.77877918885702,266.5259348613L62.72839000409668,272.055550179075L65.77632117984432,271.992711791025L68.72593199508398,272.46750669712503L71.77386317083163,272.7664545871125L74.82179434657927,273.7503697131375L77.77140516181893,275.12604380025L80.8234330192544,274.1368115775L83.77304383449406,274.5377058653625L86.82097501024171,273.75649033035L89.86890618598935,272.280265239825L92.62187628021303,276.7739630170125L95.66571077427284,275.873522334975L98.61532158951249,276.842383551L101.66325276526014,275.3379059915625L104.61286358049979,277.3923623181375L107.66079475624744,280.2077602365L110.70872593199508,279.204021045825L113.65833674723474,279.065982838575L116.71036460467023,282.1618792242375L119.65997541990987,283.2721544598L122.70790659565752,282.6232171872375L125.75583777140515,284.0010625709625L128.60712822613684,283.16517148035L131.65096272019665,285.645960763725L134.6005735354363,287.06665873818747L137.64850471118393,287.3628346986375L140.59811552642358,286.9433754810375L143.64604670217122,286.2612053998875L146.69397787791888,288.0823258142625L149.64358869315853,288.9048055747125L152.69561655059402,288.28490302646253L155.64522736583368,288.1905079471125L158.6931585415813,290.35450948515L161.74108971732898,289.4124175710375L164.49405981155263,289.924621240425L167.53789430561247,290.1108400910625L170.48750512085212,290.06574885975L173.53543629659976,292.3797803862375L176.4850471118394,293.106773602425L179.53297828758707,292.2694035768L182.5809094633347,291.677020131975L185.53052027857436,292.1977861218375L188.58254813600982,292.0602571288125L191.5321589512495,290.7888542874L194.58009012699713,292.04899353345L197.62802130274477,292.368977535975L200.38099139696845,291.5534456179125L203.42482589102826,292.231685493525L206.37443670626791,292.76418163815L209.42236788201558,293.3748021642375L212.37197869725523,293.8332788935125L215.4199098730029,295.05494505495L218.4678410487505,294.725294541975L221.41745186399015,294.5839303045875L224.46947972142564,294.603248844225L227.4190905366653,294.575001607425L230.46702171241296,294.7139827956L233.5149528881606,296.1388525175625L236.26792298238425,295.1322343704L239.31175747644406,294.9288989371875L242.2613682916837,294.6928898227875L245.30929946743137,295.4353501433625L248.25891028267102,296.3050584775875L251.3068414584187,295.5203079373875L254.3547726341663,297.016033002825L257.304383449406,297.4556831154375L260.35641130684144,296.768661507825L263.3060221220811,296.53006116405L266.35395329782875,297.297686819925L269.4018844735764,297.6799133834625L272.25317492830806,297.197169764325L275.29700942236786,296.7829403925L278.24662023760754,297.333934635L281.2945514133552,297.9551328891L284.24416222859486,298.08172150575L287.29209340434244,298.0898596462125L290.34002458009013,298.0864429246875L293.28963539532975,297.9342518262L296.3416632527653,298.0617706515L299.29127406800495,298.208569088775L302.33920524375253,298.12070752515L305.3871364195002,298.2114844248375L308.1401065137239,298.1082741466875L311.1839410077837,298.6689240963L314.13355182302337,298.40166388815L317.181482998771,298.2640065036375L320.1310938140106,298.6774115895375L323.1790249897583,298.723578066L326.22695616550595,298.7426343208125L329.1765669807456,298.757668439475L332.2285948381811,298.74910650465L335.1782056534207,298.779964419975L338.2261368291684,298.940465127975L341.274068004916,299.3588605472625L344.0270380991397,299.0828946755625L347.0708725931995,299.3725949473125L350.02048340843913,299.481639521625L353.0684145841868,299.58383653755L356.01802539942645,299.8341630445875L359.06595657517414,299.6663807073L362.1138877509217,299.3990719581L365.06349856616146,299.5536860831625L368.11552642359686,299.4718805746125L371.06513723883654,299.4590346901125L374.1130684145842,299.7505471333125L377.1609995903318,299.488235622525L379.9139696845555,299.333781965025L382.9578041786153,299.57921194815L385.907414993855,299.702195246475L388.9553461696026,299.620221917025L391.9049569848423,299.4683716578375L394.9528881605899,299.715643404225L398.0008193363376,299.4801282980625L400.9504301515772,299.6852054978625L404.0024580090127,299.5914353378625L406.95206882425236,299.5646397151875L410,299.76747725505" data-legend="flash" style="stroke: rgb(31, 119, 180); fill: none;"></path>
        </g>
    </g>
    <g transform="translate(20, 150)">
        <text transform="rotate(-90)" x="-50" y="0" dy="1em" class="axis-label y-axis-label" style="text-anchor: middle; font-weight: bold;">% of Stack Overflow questions that month</text>
    </g>
    <g class="legend" transform="translate(530, 30)" style="font-size: 12px;">
        <text class="legend-title" style="font-weight: bold;">Tag</text>
        <g class="legend-items" transform="translate(0,20)">
            <text y="0em" x="1em">jquery</text>
            <text y="1em" x="1em">asp.net</text>
            <text y="2em" x="1em">reactjs</text>
            <text y="3em" x="1em">angularjs</text>
            <text y="4em" x="1em">angular</text>
            <text y="5em" x="1em">ruby-on-rails</text>
            <text y="6em" x="1em">spring-boot</text>
            <text y="7em" x="1em">spring</text>
            <text y="8em" x="1em">vue.js</text>
            <text y="9em" x="1em">flash</text>
            <text y="10em" x="1em">asp.net-core</text>
            <circle cy="-0.25em" cx="0" r="0.4em" style="fill: rgb(44, 160, 44);"></circle>
            <circle cy="0.75em" cx="0" r="0.4em" style="fill: rgb(140, 86, 75);"></circle>
            <circle cy="1.75em" cx="0" r="0.4em" style="fill: rgb(214, 39, 40);"></circle>
            <circle cy="2.75em" cx="0" r="0.4em" style="fill: rgb(31, 119, 180);"></circle>
            <circle cy="3.75em" cx="0" r="0.4em" style="fill: rgb(255, 127, 14);"></circle>
            <circle cy="4.75em" cx="0" r="0.4em" style="fill: rgb(23, 190, 207);"></circle>
            <circle cy="5.75em" cx="0" r="0.4em" style="fill: rgb(127, 127, 127);"></circle>
            <circle cy="6.75em" cx="0" r="0.4em" style="fill: rgb(227, 119, 194);"></circle>
            <circle cy="7.75em" cx="0" r="0.4em" style="fill: rgb(148, 103, 189);"></circle>
            <circle cy="8.75em" cx="0" r="0.4em" style="fill: rgb(31, 119, 180);"></circle>
            <circle cy="9.75em" cx="0" r="0.4em" style="fill: rgb(188, 189, 34);"></circle>
        </g>
        <rect class="legend-box"></rect>
    </g>
</svg>
        